<svg width="48" height="48" viewBox="0 0 48 48" fill="none" xmlns="http://www.w3.org/2000/svg">
<path fill-rule="evenodd" clip-rule="evenodd" d="M17.3333 29.9867C9.35067 31.38 0 34.9373 0 40V48H48V40C48 34.9373 38.6493 31.38 30.6667 29.9867V36H17.3333V29.9867V29.9867ZM9.33333 48V36H12V48H9.33333ZM37.3333 36V48H40V36H37.3333ZM25.3333 0.0773335V5.97333C25.3333 6.32695 25.1929 6.66609 24.9428 6.91614C24.6928 7.16619 24.3536 7.30667 24 7.30667C23.6464 7.30667 23.3072 7.16619 23.0572 6.91614C22.8071 6.66609 22.6667 6.32695 22.6667 5.97333V0C21.2901 0.0727566 19.9367 0.38405 18.6667 0.92V8.64C18.6667 8.99362 18.5262 9.33276 18.2761 9.58281C18.0261 9.83286 17.687 9.97333 17.3333 9.97333C16.9797 9.97333 16.6406 9.83286 16.3905 9.58281C16.1405 9.33276 16 8.99362 16 8.64V2.58C14.1733 4.15067 13.12 6.188 12.7853 7.97333C12.7739 8.03542 12.7632 8.09764 12.7533 8.16L12.7267 8.18667C12.608 9.02533 12.6733 9.716 12.844 10.1907C12.9533 10.521 12.9292 10.8809 12.7768 11.1936C12.6244 11.5064 12.3558 11.7472 12.0283 11.8647C11.7008 11.9821 11.3404 11.9669 11.024 11.8223C10.7076 11.6777 10.4602 11.4151 10.3347 11.0907C10.3121 11.0289 10.2907 10.9667 10.2707 10.904C2.528 21.0133 45.5147 21.008 37.716 10.8867C37.6958 10.9519 37.6745 11.0168 37.652 11.0813C37.5291 11.407 37.2837 11.6716 36.9682 11.8188C36.6528 11.9659 36.2923 11.9839 35.9638 11.8688C35.6353 11.7537 35.3648 11.5147 35.2101 11.2029C35.0555 10.8911 35.0289 10.5312 35.136 10.2C35.328 9.648 35.384 8.96 35.28 8.2C35.2721 8.19414 35.2641 8.18836 35.256 8.18267C34.968 6.38 33.872 4.38667 32 2.816V8.64C32 8.99362 31.8595 9.33276 31.6095 9.58281C31.3594 9.83286 31.0203 9.97333 30.6667 9.97333C30.313 9.97333 29.9739 9.83286 29.7239 9.58281C29.4738 9.33276 29.3333 8.99362 29.3333 8.64V1.14933C28.8127 0.915471 28.2768 0.717237 27.7293 0.556C26.9459 0.327681 26.1443 0.167091 25.3333 0.0760002V0.0773335Z" fill="#CACFEB" fill-opacity="0.5"/>
</svg>
